<svg version="1.0" xmlns="http://www.w3.org/2000/svg" viewBox="0 0 340 250" color-interpolation-filters="sRGB" style="margin:auto"><g fill="#333" class="iconlettersvg-g iconlettersvg"><g class="tp-name"><g transform="translate(43 100.542)" class="name-imagesvg"><path class="image-rect" fill="none" d="M0 0h35.301v35.045H0z"/><svg width="35.301" height="35.045" class="image-svg-svg primary" style="overflow:visible"><svg xmlns="http://www.w3.org/2000/svg" viewBox="0 0 123.84 122.94"><path fill="#c71343" d="M0 0h62.37v122.94H0z"/><path d="M62.37 0A61.47 61.47 0 1 1 .9 61.47 61.47 61.47 0 0 1 62.37 0" fill="#cfb371"/><path d="M62.37 122.64A61.32 61.32 0 1 1 62.37 0z" fill="#45207b"/></svg></svg></g><g transform="translate(78.301 100.542)" class="name-imagesvg"><path class="image-rect" fill="none" d="M0 0h34.96v35.045H0z"/><svg width="34.96" height="35.045" class="image-svg-svg primary" style="overflow:visible"><svg xmlns="http://www.w3.org/2000/svg" viewBox="0 0 123.24 123.54"><path fill="#c71343" d="M0 123.54V0l123.24 123.54z"/><path d="M0 0h79.16a38.78 38.78 0 0 1 38.69 38.68 38.78 38.78 0 0 1-38.69 38.68H0z" fill="#76bd4e"/><path fill="#45207b" d="M77.36 77.36H0V0z"/></svg></svg></g><g transform="translate(113.261 100.542)" class="name-imagesvg"><path class="image-rect" fill="none" d="M0 0h39.827v35.045H0z"/><svg width="39.827" height="35.045" class="image-svg-svg primary" style="overflow:visible"><svg xmlns="http://www.w3.org/2000/svg" viewBox="0 0 144.83 127.44"><path fill="#4195d2" d="M0 127.44h50.38l47.07-83.06L72.27 0z"/><path fill="#76bd4e" d="M144.83 127.44H94.45L47.08 44.38 72.27 0z"/><path fill="#380c0a" d="m72.27 88.76 25.18-44.38L72.27 0 47.08 44.38z"/></svg></svg></g><g transform="translate(153.088 100.542)" class="name-imagesvg"><path class="image-rect" fill="none" d="M0 0h56.12v35.045H0z"/><svg width="56.12" height="35.045" class="image-svg-svg primary" style="overflow:visible"><svg xmlns="http://www.w3.org/2000/svg" viewBox="0 0 203.6 127.14"><path fill="#c71343" d="M144.83 0H0l72.27 127.14z"/><path fill="#4195d2" d="M203.6 0H58.77l72.27 127.14z"/><path fill="#00234b" d="M144.83 0H58.77l42.88 75.57z"/></svg></svg></g><g transform="translate(209.209 100.542)" class="name-imagesvg"><path class="image-rect" fill="none" d="M0 0h17.779v35.045H0z"/><svg width="17.779" height="35.045" class="image-svg-svg primary" style="overflow:visible"><svg xmlns="http://www.w3.org/2000/svg" viewBox="0 0 62.37 122.94"><path fill="#eb6700" d="M0 0h62.37v122.94H0z"/><path fill="#76bd4e" d="M0 0v28.49h62.07V0z"/></svg></svg></g><g transform="translate(226.988 100.542)" class="name-imagesvg"><path class="image-rect" fill="none" d="M0 0h35.048v35.045H0z"/><svg width="35.048" height="35.045" class="image-svg-svg primary" style="overflow:visible"><svg xmlns="http://www.w3.org/2000/svg" viewBox="0 0 127.44 127.44"><path fill="#c71343" d="M127.44 127.44H0V0z"/><path fill="#4195d2" d="M65.07 0h62.38v127.14H65.07z"/><path fill="#00234b" d="M65.07 65.07v62.37h62.37z"/></svg></svg></g><g transform="translate(262.036 100.542)" class="name-imagesvg"><path class="image-rect" fill="none" d="M0 0h34.965v35.045H0z"/><svg width="34.965" height="35.045" class="image-svg-svg primary" style="overflow:visible"><svg xmlns="http://www.w3.org/2000/svg" viewBox="0 0 131.64 131.94"><path d="M112.75 112.45A66 66 0 0 1 66 131.94a75.3 75.3 0 0 1-16.5-2.1l-.3-.3h-.9A66 66 0 0 1 0 66h131.64a65.5 65.5 0 0 1-19.2 46.48z" fill="#eb6700"/><path d="M19.49 112.45a65.53 65.53 0 0 1 0-93.26L66 66z" fill="#380c0a"/><path d="M66 0a65.73 65.73 0 0 1 46.78 19.19L80.36 51.58 66 66 19.49 19.19A64.5 64.5 0 0 1 66 0" fill="#4195d2"/></svg></svg></g></g><path d="M164.494 146.259h-2.37l.38-1.2c.14-.44.28-.88.4-1.32.13-.43.26-.88.38-1.34h.04c.13.46.26.91.39 1.34.13.44.26.88.41 1.32Zm.25.8.74 2.4h1.07l-2.66-7.87h-1.13l-2.66 7.87h1.02l.75-2.4Zm2.93-5.47v7.87h.99v-3.12h1.42c.43 0 .83-.05 1.18-.15.36-.1.66-.25.92-.45s.45-.45.59-.76q.21-.45.21-1.08c0-.43-.07-.79-.21-1.09-.14-.29-.33-.53-.58-.71a2.6 2.6 0 0 0-.92-.39c-.36-.08-.76-.12-1.19-.12Zm2.29 3.93h-1.3v-3.13h1.3c.68 0 1.19.11 1.52.33.34.22.51.62.51 1.18s-.17.97-.5 1.23q-.495.39-1.53.39m4.62-3.93v7.87h1v-3.12h1.41c.43 0 .83-.05 1.18-.15.36-.1.67-.25.92-.45.26-.2.46-.45.6-.76q.21-.45.21-1.08c0-.43-.07-.79-.21-1.09-.14-.29-.34-.53-.59-.71s-.56-.31-.92-.39-.76-.12-1.19-.12Zm2.29 3.93h-1.29v-3.13h1.29q1.02 0 1.53.33c.33.22.5.62.5 1.18s-.17.97-.5 1.23q-.495.39-1.53.39" data-gra="path-slogan" class="tp-slogan"/></g></svg>